<svg xmlns="http://www.w3.org/2000/svg" viewBox="0 0 32 32" width="32" height="32" role="img" aria-label="Verso">
  <defs>
    <linearGradient id="verso-grad" x1="0" y1="0" x2="1" y2="1">
      <stop offset="0" stop-color="#3b82f6"/>
      <stop offset="1" stop-color="#2563eb"/>
    </linearGradient>
  </defs>
  <rect width="32" height="32" rx="8" fill="url(#verso-grad)"/>
  <path d="M16 10.2c-2.1-1.3-4.9-1.7-7.3-1.2a1 1 0 0 0-.8 1v10.9a1 1 0 0 0 1.2 1c2-.5 4.5-.1 6.9 1.1 2.4-1.2 4.9-1.6 6.9-1.1a1 1 0 0 0 1.2-1V10a1 1 0 0 0-.8-1c-2.4-.5-5.2-.1-7.3 1.2Z" fill="#ffffff"/>
  <path d="M16 10.4v12.6" stroke="#2563eb" stroke-width="1.3" stroke-linecap="round"/>
</svg>
